<svg width="578" height="472" viewBox="0 0 578 472" fill="none" xmlns="http://www.w3.org/2000/svg">
<g filter="url(#filter0_d_9_27)">
<path d="M118.803 27.5971L95.7824 89.7527L123.198 163H93.271L73.1803 109.425H63.7628V163H34.4639V27.5971H63.7628V84.3115H70.8783L92.0153 27.5971H118.803ZM180.682 27.5971C197.982 27.5971 206.633 36.8054 206.633 55.2218V135.375C206.633 153.792 197.982 163 180.682 163H126.898V27.5971H180.682ZM177.334 138.724V51.6641C177.334 50.548 176.915 49.5713 176.078 48.7342C175.38 47.8971 174.474 47.4785 173.357 47.4785H156.197V142.909H173.357C174.474 142.909 175.38 142.491 176.078 141.654C176.915 140.817 177.334 139.84 177.334 138.724ZM301.928 53.1291V137.468C301.928 155.885 293.278 165.093 275.977 165.093H248.143C230.843 165.093 222.193 155.885 222.193 137.468V53.1291C222.193 34.7126 230.843 25.5044 248.143 25.5044H275.977C293.278 25.5044 301.928 34.7126 301.928 53.1291ZM272.629 140.817V49.5713C272.629 48.4552 272.21 47.4785 271.373 46.6414C270.676 45.8043 269.769 45.3858 268.652 45.3858H255.468C254.352 45.3858 253.375 45.8043 252.538 46.6414C251.84 47.4785 251.492 48.4552 251.492 49.5713V140.817C251.492 141.933 251.84 142.909 252.538 143.746C253.375 144.584 254.352 145.002 255.468 145.002H268.652C269.769 145.002 270.676 144.584 271.373 143.746C272.21 142.909 272.629 141.933 272.629 140.817ZM356.837 109.216V87.6599H395.553V137.468C395.553 155.885 386.903 165.093 369.603 165.093H343.234C325.934 165.093 317.283 155.885 317.283 137.468V53.1291C317.283 34.7126 325.934 25.5044 343.234 25.5044H369.603C386.903 25.5044 395.553 34.7126 395.553 53.1291V65.895H367.719V49.5713C367.719 48.4552 367.301 47.4785 366.464 46.6414C365.766 45.8043 364.859 45.3858 363.743 45.3858H350.559C349.443 45.3858 348.466 45.8043 347.629 46.6414C346.931 47.4785 346.582 48.4552 346.582 49.5713V140.817C346.582 141.933 346.931 142.909 347.629 143.746C348.466 144.584 349.443 145.002 350.559 145.002H363.743C364.859 145.002 365.766 144.584 366.464 143.746C367.301 142.909 367.719 141.933 367.719 140.817V109.216H356.837ZM480.556 63.1744H452.722V52.5012C452.722 51.3851 452.304 50.4084 451.467 49.5713C450.769 48.7342 449.862 48.3157 448.746 48.3157H437.236C436.12 48.3157 435.143 48.7342 434.306 49.5713C433.608 50.4084 433.259 51.3851 433.259 52.5012V76.5682C433.259 77.6843 433.608 78.661 434.306 79.4981C435.143 80.3352 436.12 80.7538 437.236 80.7538H456.071C473.371 81.0328 482.021 90.241 482.021 108.378V137.468C482.021 155.885 473.371 165.093 456.071 165.093H431.376C414.076 165.093 405.425 155.885 405.425 137.468V123.446H433.259V138.514C433.259 139.631 433.608 140.607 434.306 141.444C435.143 142.281 436.12 142.7 437.236 142.7H450.211C451.327 142.7 452.234 142.281 452.932 141.444C453.769 140.607 454.187 139.631 454.187 138.514V111.936C454.187 110.82 453.769 109.843 452.932 109.006C452.234 108.169 451.327 107.751 450.211 107.751H431.376C414.076 107.751 405.425 98.5424 405.425 80.1259V53.1291C405.425 34.7126 414.076 25.5044 431.376 25.5044H454.606C471.906 25.5044 480.556 34.7126 480.556 53.1291V63.1744ZM63.7628 255.843V309H34.4639V173.597H95.5731V198.92H63.7628V231.358H93.4803V255.843H63.7628ZM160.245 171.504C177.545 171.504 186.195 180.713 186.195 199.129V309H156.896V263.587H135.759V309H106.46V199.129C106.46 180.713 115.111 171.504 132.411 171.504H160.245ZM135.759 240.985H156.896V195.571C156.896 194.455 156.478 193.479 155.641 192.641C154.943 191.804 154.036 191.386 152.92 191.386H139.736C138.619 191.386 137.643 191.804 136.806 192.641C136.108 193.479 135.759 194.455 135.759 195.571V240.985ZM230.845 309H201.546V199.129C201.546 180.713 210.196 171.504 227.497 171.504H242.983C253.168 171.504 260.423 174.853 264.748 181.55C268.794 174.853 276.049 171.504 286.513 171.504H302C319.3 171.504 327.95 180.713 327.95 199.129V309H298.651V196.618C298.651 195.502 298.233 194.525 297.396 193.688C296.698 192.851 295.791 192.432 294.675 192.432H283.374C282.258 192.432 281.281 192.851 280.444 193.688C279.746 194.525 279.398 195.502 279.398 196.618V309H250.099V196.618C250.099 195.502 249.68 194.525 248.843 193.688C248.145 192.851 247.239 192.432 246.122 192.432H234.821C233.705 192.432 232.729 192.851 231.892 193.688C231.194 194.525 230.845 195.502 230.845 196.618V309ZM371.107 173.597V309H341.808V173.597H371.107ZM415.922 284.305H447.942V309H386.623V173.597H415.922V284.305ZM534.033 173.597L504.944 259.61V309H475.645V259.61L446.555 173.597H474.18L490.294 230.102L506.409 173.597H534.033Z" fill="#FDBE74"/>
<path d="M50.176 328.472H41.664V325.208C41.664 324.867 41.536 324.568 41.28 324.312C41.0667 324.056 40.7893 323.928 40.448 323.928H36.928C36.5867 323.928 36.288 324.056 36.032 324.312C35.8187 324.568 35.712 324.867 35.712 325.208V332.568C35.712 332.909 35.8187 333.208 36.032 333.464C36.288 333.72 36.5867 333.848 36.928 333.848H42.688C47.9787 333.933 50.624 336.749 50.624 342.296V351.192C50.624 356.824 47.9787 359.64 42.688 359.64H35.136C29.8453 359.64 27.2 356.824 27.2 351.192V346.904H35.712V351.512C35.712 351.853 35.8187 352.152 36.032 352.408C36.288 352.664 36.5867 352.792 36.928 352.792H40.896C41.2373 352.792 41.5147 352.664 41.728 352.408C41.984 352.152 42.112 351.853 42.112 351.512V343.384C42.112 343.043 41.984 342.744 41.728 342.488C41.5147 342.232 41.2373 342.104 40.896 342.104H35.136C29.8453 342.104 27.2 339.288 27.2 333.656V325.4C27.2 319.768 29.8453 316.952 35.136 316.952H42.24C47.5307 316.952 50.176 319.768 50.176 325.4V328.472ZM64.8325 351.576H74.7525V359H55.8725V317.592H74.7525V324.888H64.8325V334.616H74.1125V341.656H64.8325V351.576ZM113.801 336.856V343.704H91.9765V336.856H113.801ZM141.085 351.448H150.877V359H132.125V317.592H141.085V351.448ZM178.869 325.4V351.192C178.869 356.824 176.224 359.64 170.933 359.64H162.421C157.13 359.64 154.485 356.824 154.485 351.192V325.4C154.485 319.768 157.13 316.952 162.421 316.952H170.933C176.224 316.952 178.869 319.768 178.869 325.4ZM169.909 352.216V324.312C169.909 323.971 169.781 323.672 169.525 323.416C169.312 323.16 169.034 323.032 168.693 323.032H164.661C164.32 323.032 164.021 323.16 163.765 323.416C163.552 323.672 163.445 323.971 163.445 324.312V352.216C163.445 352.557 163.552 352.856 163.765 353.112C164.021 353.368 164.32 353.496 164.661 353.496H168.693C169.034 353.496 169.312 353.368 169.525 353.112C169.781 352.856 169.909 352.557 169.909 352.216ZM208.589 359H199.629V324.632C199.629 324.291 199.501 323.992 199.245 323.736C199.032 323.48 198.754 323.352 198.413 323.352H194.957C194.616 323.352 194.317 323.48 194.061 323.736C193.848 323.992 193.741 324.291 193.741 324.632V359H184.781V325.4C184.781 319.768 187.426 316.952 192.717 316.952H200.653C205.944 316.952 208.589 319.768 208.589 325.4V359ZM230.403 317.592C235.694 317.592 238.339 320.408 238.339 326.04V350.552C238.339 356.184 235.694 359 230.403 359H213.955V317.592H230.403ZM229.379 351.576V324.952C229.379 324.611 229.251 324.312 228.995 324.056C228.782 323.8 228.504 323.672 228.163 323.672H222.915V352.856H228.163C228.504 352.856 228.782 352.728 228.995 352.472C229.251 352.216 229.379 351.917 229.379 351.576ZM268.762 325.4V351.192C268.762 356.824 266.116 359.64 260.826 359.64H252.314C247.023 359.64 244.378 356.824 244.378 351.192V325.4C244.378 319.768 247.023 316.952 252.314 316.952H260.826C266.116 316.952 268.762 319.768 268.762 325.4ZM259.802 352.216V324.312C259.802 323.971 259.674 323.672 259.418 323.416C259.204 323.16 258.927 323.032 258.586 323.032H254.554C254.212 323.032 253.914 323.16 253.658 323.416C253.444 323.672 253.338 323.971 253.338 324.312V352.216C253.338 352.557 253.444 352.856 253.658 353.112C253.914 353.368 254.212 353.496 254.554 353.496H258.586C258.927 353.496 259.204 353.368 259.418 353.112C259.674 352.856 259.802 352.557 259.802 352.216ZM298.482 359H289.522V324.632C289.522 324.291 289.394 323.992 289.138 323.736C288.924 323.48 288.647 323.352 288.306 323.352H284.85C284.508 323.352 284.21 323.48 283.954 323.736C283.74 323.992 283.634 324.291 283.634 324.632V359H274.674V325.4C274.674 319.768 277.319 316.952 282.61 316.952H290.546C295.836 316.952 298.482 319.768 298.482 325.4V359Z" fill="#FDBE74"/>
<path d="M25.2102 385V383.364C25.2102 382.881 25.3011 382.372 25.483 381.838C25.6648 381.304 25.9176 380.793 26.2415 380.304C26.5653 379.815 26.946 379.398 27.3835 379.051L28.6449 379.955C28.2983 380.46 28.0028 380.989 27.7585 381.54C27.5142 382.091 27.392 382.69 27.392 383.338V385H25.2102ZM29.5568 385V383.364C29.5568 382.881 29.6477 382.372 29.8295 381.838C30.0114 381.304 30.2642 380.793 30.5881 380.304C30.9119 379.815 31.2926 379.398 31.7301 379.051L32.9915 379.955C32.6449 380.46 32.3494 380.989 32.1051 381.54C31.8608 382.091 31.7386 382.69 31.7386 383.338V385H29.5568ZM38.804 397L33.9631 379.545H36.733L40.1335 393.062H40.2955L43.8324 379.545H46.5767L50.1136 393.071H50.2756L53.6676 379.545H56.446L51.5966 397H48.946L45.2727 383.926H45.1364L41.4631 397H38.804ZM62.9957 397.264C61.706 397.264 60.5952 396.989 59.6634 396.438C58.7372 395.881 58.0213 395.099 57.5156 394.094C57.0156 393.082 56.7656 391.898 56.7656 390.54C56.7656 389.199 57.0156 388.017 57.5156 386.994C58.0213 385.972 58.7259 385.173 59.6293 384.599C60.5384 384.026 61.6009 383.739 62.8168 383.739C63.5554 383.739 64.2713 383.861 64.9645 384.105C65.6577 384.349 66.2798 384.733 66.831 385.256C67.3821 385.778 67.8168 386.457 68.1349 387.293C68.4531 388.122 68.6122 389.131 68.6122 390.318V391.222H58.206V389.312H66.1151C66.1151 388.642 65.9787 388.048 65.706 387.531C65.4332 387.009 65.0497 386.597 64.5554 386.295C64.0668 385.994 63.4929 385.844 62.8338 385.844C62.1179 385.844 61.4929 386.02 60.9588 386.372C60.4304 386.719 60.0213 387.173 59.7315 387.736C59.4474 388.293 59.3054 388.898 59.3054 389.551V391.043C59.3054 391.918 59.4588 392.662 59.7656 393.276C60.0781 393.889 60.5128 394.358 61.0696 394.682C61.6264 395 62.277 395.159 63.0213 395.159C63.5043 395.159 63.9446 395.091 64.3423 394.955C64.7401 394.812 65.0838 394.602 65.3736 394.324C65.6634 394.045 65.8849 393.702 66.0384 393.293L68.4503 393.727C68.2571 394.437 67.9105 395.06 67.4105 395.594C66.9162 396.122 66.294 396.534 65.544 396.83C64.7997 397.119 63.9503 397.264 62.9957 397.264ZM83.902 383.909V385.955H76.7514V383.909H83.902ZM78.669 380.773H81.2173V393.156C81.2173 393.651 81.2912 394.023 81.4389 394.273C81.5866 394.517 81.777 394.685 82.0099 394.776C82.2486 394.861 82.5071 394.903 82.7855 394.903C82.9901 394.903 83.169 394.889 83.3224 394.861C83.4759 394.832 83.5952 394.81 83.6804 394.793L84.1406 396.898C83.9929 396.955 83.7827 397.011 83.5099 397.068C83.2372 397.131 82.8963 397.165 82.4872 397.17C81.8168 397.182 81.1918 397.062 80.6122 396.812C80.0327 396.562 79.5639 396.176 79.206 395.653C78.848 395.131 78.669 394.474 78.669 393.685V380.773ZM86.7209 397V383.909H89.1839V385.989H89.3203C89.5589 385.284 89.9794 384.73 90.5817 384.327C91.1896 383.918 91.8771 383.713 92.6442 383.713C92.8033 383.713 92.9908 383.719 93.2067 383.73C93.4283 383.741 93.6016 383.756 93.7266 383.773V386.21C93.6243 386.182 93.4425 386.151 93.1811 386.116C92.9197 386.077 92.6584 386.057 92.397 386.057C91.7947 386.057 91.2578 386.185 90.7862 386.44C90.3203 386.69 89.951 387.04 89.6783 387.489C89.4055 387.932 89.2692 388.437 89.2692 389.006V397H86.7209ZM101.105 397.264C99.8153 397.264 98.7045 396.989 97.7727 396.438C96.8466 395.881 96.1307 395.099 95.625 394.094C95.125 393.082 94.875 391.898 94.875 390.54C94.875 389.199 95.125 388.017 95.625 386.994C96.1307 385.972 96.8352 385.173 97.7386 384.599C98.6477 384.026 99.7102 383.739 100.926 383.739C101.665 383.739 102.381 383.861 103.074 384.105C103.767 384.349 104.389 384.733 104.94 385.256C105.491 385.778 105.926 386.457 106.244 387.293C106.563 388.122 106.722 389.131 106.722 390.318V391.222H96.3153V389.312H104.224C104.224 388.642 104.088 388.048 103.815 387.531C103.543 387.009 103.159 386.597 102.665 386.295C102.176 385.994 101.602 385.844 100.943 385.844C100.227 385.844 99.6023 386.02 99.0682 386.372C98.5398 386.719 98.1307 387.173 97.8409 387.736C97.5568 388.293 97.4148 388.898 97.4148 389.551V391.043C97.4148 391.918 97.5682 392.662 97.875 393.276C98.1875 393.889 98.6222 394.358 99.179 394.682C99.7358 395 100.386 395.159 101.131 395.159C101.614 395.159 102.054 395.091 102.452 394.955C102.849 394.812 103.193 394.602 103.483 394.324C103.773 394.045 103.994 393.702 104.148 393.293L106.56 393.727C106.366 394.437 106.02 395.06 105.52 395.594C105.026 396.122 104.403 396.534 103.653 396.83C102.909 397.119 102.06 397.264 101.105 397.264ZM113.359 397.29C112.529 397.29 111.779 397.136 111.109 396.83C110.438 396.517 109.907 396.065 109.515 395.474C109.129 394.884 108.935 394.159 108.935 393.301C108.935 392.562 109.077 391.955 109.362 391.477C109.646 391 110.029 390.622 110.512 390.344C110.995 390.065 111.535 389.855 112.131 389.713C112.728 389.571 113.336 389.463 113.955 389.389C114.739 389.298 115.376 389.224 115.864 389.168C116.353 389.105 116.708 389.006 116.93 388.869C117.151 388.733 117.262 388.511 117.262 388.205V388.145C117.262 387.401 117.052 386.824 116.631 386.415C116.217 386.006 115.597 385.801 114.773 385.801C113.915 385.801 113.239 385.991 112.745 386.372C112.256 386.747 111.918 387.165 111.731 387.625L109.336 387.08C109.62 386.284 110.035 385.642 110.58 385.153C111.131 384.659 111.765 384.301 112.481 384.08C113.197 383.852 113.95 383.739 114.739 383.739C115.262 383.739 115.816 383.801 116.401 383.926C116.992 384.045 117.543 384.267 118.055 384.591C118.572 384.915 118.995 385.378 119.325 385.98C119.654 386.577 119.819 387.352 119.819 388.307V397H117.33V395.21H117.228C117.063 395.54 116.816 395.864 116.487 396.182C116.157 396.5 115.734 396.764 115.217 396.974C114.7 397.185 114.08 397.29 113.359 397.29ZM113.913 395.244C114.617 395.244 115.219 395.105 115.719 394.827C116.225 394.548 116.609 394.185 116.87 393.736C117.137 393.281 117.271 392.795 117.271 392.278V390.591C117.18 390.682 117.004 390.767 116.742 390.847C116.487 390.92 116.194 390.986 115.864 391.043C115.535 391.094 115.214 391.142 114.901 391.188C114.589 391.227 114.327 391.261 114.117 391.29C113.623 391.352 113.171 391.457 112.762 391.605C112.359 391.753 112.035 391.966 111.79 392.244C111.552 392.517 111.433 392.881 111.433 393.335C111.433 393.966 111.665 394.443 112.131 394.767C112.597 395.085 113.191 395.244 113.913 395.244ZM129.324 383.909V385.955H122.173V383.909H129.324ZM124.091 380.773H126.639V393.156C126.639 393.651 126.713 394.023 126.861 394.273C127.009 394.517 127.199 394.685 127.432 394.776C127.67 394.861 127.929 394.903 128.207 394.903C128.412 394.903 128.591 394.889 128.744 394.861C128.898 394.832 129.017 394.81 129.102 394.793L129.562 396.898C129.415 396.955 129.205 397.011 128.932 397.068C128.659 397.131 128.318 397.165 127.909 397.17C127.239 397.182 126.614 397.062 126.034 396.812C125.455 396.562 124.986 396.176 124.628 395.653C124.27 395.131 124.091 394.474 124.091 393.685V380.773ZM140.105 401.909C139.724 401.909 139.378 401.878 139.065 401.815C138.753 401.759 138.52 401.696 138.366 401.628L138.98 399.54C139.446 399.665 139.861 399.719 140.224 399.702C140.588 399.685 140.909 399.548 141.188 399.293C141.472 399.037 141.722 398.619 141.938 398.04L142.253 397.17L137.463 383.909H140.19L143.506 394.068H143.642L146.957 383.909H149.693L144.298 398.747C144.048 399.429 143.73 400.006 143.344 400.477C142.957 400.955 142.497 401.313 141.963 401.551C141.429 401.79 140.81 401.909 140.105 401.909ZM157.157 397.264C155.93 397.264 154.859 396.983 153.944 396.42C153.029 395.858 152.319 395.071 151.813 394.06C151.308 393.048 151.055 391.866 151.055 390.514C151.055 389.156 151.308 387.969 151.813 386.952C152.319 385.935 153.029 385.145 153.944 384.582C154.859 384.02 155.93 383.739 157.157 383.739C158.384 383.739 159.455 384.02 160.37 384.582C161.285 385.145 161.995 385.935 162.501 386.952C163.006 387.969 163.259 389.156 163.259 390.514C163.259 391.866 163.006 393.048 162.501 394.06C161.995 395.071 161.285 395.858 160.37 396.42C159.455 396.983 158.384 397.264 157.157 397.264ZM157.165 395.125C157.961 395.125 158.62 394.915 159.143 394.494C159.665 394.074 160.052 393.514 160.302 392.815C160.558 392.116 160.685 391.347 160.685 390.506C160.685 389.67 160.558 388.903 160.302 388.205C160.052 387.5 159.665 386.935 159.143 386.509C158.62 386.082 157.961 385.869 157.165 385.869C156.364 385.869 155.7 386.082 155.171 386.509C154.648 386.935 154.259 387.5 154.004 388.205C153.754 388.903 153.629 389.67 153.629 390.506C153.629 391.347 153.754 392.116 154.004 392.815C154.259 393.514 154.648 394.074 155.171 394.494C155.7 394.915 156.364 395.125 157.165 395.125ZM174.396 391.571V383.909H176.953V397H174.447V394.733H174.311C174.01 395.432 173.527 396.014 172.862 396.48C172.203 396.94 171.382 397.17 170.399 397.17C169.558 397.17 168.814 396.986 168.166 396.616C167.524 396.241 167.018 395.688 166.649 394.955C166.286 394.222 166.104 393.315 166.104 392.236V383.909H168.652V391.929C168.652 392.821 168.899 393.531 169.393 394.06C169.888 394.588 170.53 394.852 171.32 394.852C171.797 394.852 172.271 394.733 172.743 394.494C173.22 394.256 173.615 393.895 173.928 393.412C174.246 392.929 174.402 392.315 174.396 391.571ZM180.377 397V383.909H182.84V385.989H182.977C183.215 385.284 183.636 384.73 184.238 384.327C184.846 383.918 185.533 383.713 186.3 383.713C186.46 383.713 186.647 383.719 186.863 383.73C187.085 383.741 187.258 383.756 187.383 383.773V386.21C187.281 386.182 187.099 386.151 186.837 386.116C186.576 386.077 186.315 386.057 186.053 386.057C185.451 386.057 184.914 386.185 184.442 386.44C183.977 386.69 183.607 387.04 183.335 387.489C183.062 387.932 182.925 388.437 182.925 389.006V397H180.377ZM200.84 397.256C199.783 397.256 198.84 396.986 198.011 396.446C197.187 395.901 196.539 395.125 196.067 394.119C195.602 393.108 195.369 391.895 195.369 390.48C195.369 389.065 195.604 387.855 196.076 386.849C196.553 385.844 197.207 385.074 198.036 384.54C198.866 384.006 199.806 383.739 200.857 383.739C201.67 383.739 202.323 383.875 202.817 384.148C203.317 384.415 203.704 384.727 203.977 385.085C204.255 385.443 204.471 385.759 204.624 386.031H204.778V379.545H207.326V397H204.837V394.963H204.624C204.471 395.241 204.249 395.56 203.96 395.918C203.675 396.276 203.283 396.588 202.783 396.855C202.283 397.122 201.636 397.256 200.84 397.256ZM201.403 395.082C202.136 395.082 202.755 394.889 203.261 394.503C203.772 394.111 204.158 393.568 204.42 392.875C204.687 392.182 204.82 391.375 204.82 390.455C204.82 389.545 204.69 388.75 204.428 388.068C204.167 387.386 203.783 386.855 203.278 386.474C202.772 386.094 202.147 385.903 201.403 385.903C200.636 385.903 199.996 386.102 199.485 386.5C198.974 386.898 198.587 387.44 198.326 388.128C198.07 388.815 197.942 389.591 197.942 390.455C197.942 391.33 198.073 392.116 198.335 392.815C198.596 393.514 198.982 394.068 199.494 394.477C200.011 394.881 200.647 395.082 201.403 395.082ZM216.477 397.264C215.25 397.264 214.179 396.983 213.264 396.42C212.349 395.858 211.639 395.071 211.134 394.06C210.628 393.048 210.375 391.866 210.375 390.514C210.375 389.156 210.628 387.969 211.134 386.952C211.639 385.935 212.349 385.145 213.264 384.582C214.179 384.02 215.25 383.739 216.477 383.739C217.705 383.739 218.776 384.02 219.69 384.582C220.605 385.145 221.315 385.935 221.821 386.952C222.327 387.969 222.58 389.156 222.58 390.514C222.58 391.866 222.327 393.048 221.821 394.06C221.315 395.071 220.605 395.858 219.69 396.42C218.776 396.983 217.705 397.264 216.477 397.264ZM216.486 395.125C217.281 395.125 217.94 394.915 218.463 394.494C218.986 394.074 219.372 393.514 219.622 392.815C219.878 392.116 220.006 391.347 220.006 390.506C220.006 389.67 219.878 388.903 219.622 388.205C219.372 387.5 218.986 386.935 218.463 386.509C217.94 386.082 217.281 385.869 216.486 385.869C215.685 385.869 215.02 386.082 214.491 386.509C213.969 386.935 213.58 387.5 213.324 388.205C213.074 388.903 212.949 389.67 212.949 390.506C212.949 391.347 213.074 392.116 213.324 392.815C213.58 393.514 213.969 394.074 214.491 394.494C215.02 394.915 215.685 395.125 216.486 395.125ZM230.913 402.182C229.873 402.182 228.978 402.045 228.228 401.773C227.484 401.5 226.876 401.139 226.404 400.69C225.933 400.241 225.58 399.75 225.347 399.216L227.538 398.312C227.691 398.562 227.896 398.827 228.151 399.105C228.413 399.389 228.765 399.631 229.208 399.83C229.657 400.028 230.234 400.128 230.938 400.128C231.904 400.128 232.702 399.892 233.333 399.42C233.964 398.955 234.279 398.21 234.279 397.188V394.614H234.117C233.964 394.892 233.742 395.202 233.452 395.543C233.168 395.884 232.776 396.179 232.276 396.429C231.776 396.679 231.126 396.804 230.325 396.804C229.29 396.804 228.359 396.562 227.529 396.08C226.705 395.591 226.052 394.872 225.569 393.923C225.092 392.969 224.853 391.795 224.853 390.403C224.853 389.011 225.089 387.818 225.56 386.824C226.038 385.83 226.691 385.068 227.521 384.54C228.35 384.006 229.29 383.739 230.342 383.739C231.154 383.739 231.81 383.875 232.31 384.148C232.81 384.415 233.2 384.727 233.478 385.085C233.762 385.443 233.981 385.759 234.134 386.031H234.322V383.909H236.819V397.29C236.819 398.415 236.558 399.338 236.035 400.06C235.512 400.781 234.805 401.315 233.913 401.662C233.026 402.009 232.026 402.182 230.913 402.182ZM230.887 394.69C231.62 394.69 232.239 394.52 232.745 394.179C233.256 393.832 233.643 393.338 233.904 392.696C234.171 392.048 234.305 391.273 234.305 390.369C234.305 389.489 234.174 388.713 233.913 388.043C233.651 387.372 233.268 386.849 232.762 386.474C232.256 386.094 231.631 385.903 230.887 385.903C230.12 385.903 229.481 386.102 228.969 386.5C228.458 386.892 228.072 387.426 227.81 388.102C227.555 388.778 227.427 389.534 227.427 390.369C227.427 391.227 227.558 391.98 227.819 392.628C228.08 393.276 228.467 393.781 228.978 394.145C229.495 394.509 230.131 394.69 230.887 394.69ZM250.046 387.105L247.737 387.514C247.64 387.219 247.487 386.937 247.276 386.67C247.072 386.403 246.793 386.185 246.441 386.014C246.089 385.844 245.648 385.759 245.12 385.759C244.398 385.759 243.796 385.92 243.313 386.244C242.83 386.562 242.589 386.974 242.589 387.48C242.589 387.918 242.751 388.27 243.075 388.537C243.398 388.804 243.921 389.023 244.643 389.193L246.722 389.67C247.927 389.949 248.825 390.378 249.415 390.957C250.006 391.537 250.302 392.29 250.302 393.216C250.302 394 250.075 394.699 249.62 395.312C249.171 395.92 248.543 396.398 247.737 396.744C246.935 397.091 246.006 397.264 244.95 397.264C243.484 397.264 242.288 396.952 241.362 396.327C240.435 395.696 239.867 394.801 239.657 393.642L242.12 393.267C242.273 393.909 242.589 394.395 243.066 394.724C243.543 395.048 244.165 395.21 244.933 395.21C245.768 395.21 246.435 395.037 246.935 394.69C247.435 394.338 247.685 393.909 247.685 393.403C247.685 392.994 247.532 392.651 247.225 392.372C246.924 392.094 246.461 391.884 245.836 391.741L243.62 391.256C242.398 390.977 241.495 390.534 240.91 389.926C240.33 389.318 240.04 388.548 240.04 387.616C240.04 386.844 240.256 386.168 240.688 385.588C241.12 385.009 241.717 384.557 242.478 384.233C243.239 383.903 244.112 383.739 245.094 383.739C246.509 383.739 247.623 384.045 248.435 384.659C249.248 385.267 249.785 386.082 250.046 387.105ZM262.004 379.545V397H259.455V379.545H262.004ZM265.432 397V383.909H267.98V397H265.432ZM266.719 381.889C266.276 381.889 265.895 381.741 265.577 381.446C265.264 381.145 265.108 380.787 265.108 380.372C265.108 379.952 265.264 379.594 265.577 379.298C265.895 378.997 266.276 378.847 266.719 378.847C267.162 378.847 267.54 378.997 267.852 379.298C268.17 379.594 268.33 379.952 268.33 380.372C268.33 380.787 268.17 381.145 267.852 381.446C267.54 381.741 267.162 381.889 266.719 381.889ZM273.752 392.56L273.735 389.449H274.178L279.394 383.909H282.445L276.496 390.216H276.096L273.752 392.56ZM271.408 397V379.545H273.957V397H271.408ZM279.675 397L274.988 390.778L276.744 388.997L282.803 397H279.675ZM289.871 397.264C288.581 397.264 287.47 396.989 286.538 396.438C285.612 395.881 284.896 395.099 284.391 394.094C283.891 393.082 283.641 391.898 283.641 390.54C283.641 389.199 283.891 388.017 284.391 386.994C284.896 385.972 285.601 385.173 286.504 384.599C287.413 384.026 288.476 383.739 289.692 383.739C290.43 383.739 291.146 383.861 291.839 384.105C292.533 384.349 293.155 384.733 293.706 385.256C294.257 385.778 294.692 386.457 295.01 387.293C295.328 388.122 295.487 389.131 295.487 390.318V391.222H285.081V389.312H292.99C292.99 388.642 292.854 388.048 292.581 387.531C292.308 387.009 291.925 386.597 291.43 386.295C290.942 385.994 290.368 385.844 289.709 385.844C288.993 385.844 288.368 386.02 287.834 386.372C287.305 386.719 286.896 387.173 286.607 387.736C286.322 388.293 286.18 388.898 286.18 389.551V391.043C286.18 391.918 286.334 392.662 286.641 393.276C286.953 393.889 287.388 394.358 287.945 394.682C288.501 395 289.152 395.159 289.896 395.159C290.379 395.159 290.82 395.091 291.217 394.955C291.615 394.812 291.959 394.602 292.249 394.324C292.538 394.045 292.76 393.702 292.913 393.293L295.325 393.727C295.132 394.437 294.786 395.06 294.286 395.594C293.791 396.122 293.169 396.534 292.419 396.83C291.675 397.119 290.825 397.264 289.871 397.264ZM304.871 397V379.545H315.695V381.812H307.504V387.131H314.919V389.389H307.504V397H304.871ZM322.491 397.29C321.662 397.29 320.912 397.136 320.241 396.83C319.571 396.517 319.04 396.065 318.648 395.474C318.261 394.884 318.068 394.159 318.068 393.301C318.068 392.562 318.21 391.955 318.494 391.477C318.778 391 319.162 390.622 319.645 390.344C320.128 390.065 320.668 389.855 321.264 389.713C321.861 389.571 322.469 389.463 323.088 389.389C323.872 389.298 324.509 389.224 324.997 389.168C325.486 389.105 325.841 389.006 326.062 388.869C326.284 388.733 326.395 388.511 326.395 388.205V388.145C326.395 387.401 326.185 386.824 325.764 386.415C325.349 386.006 324.73 385.801 323.906 385.801C323.048 385.801 322.372 385.991 321.878 386.372C321.389 386.747 321.051 387.165 320.864 387.625L318.469 387.08C318.753 386.284 319.168 385.642 319.713 385.153C320.264 384.659 320.898 384.301 321.614 384.08C322.33 383.852 323.082 383.739 323.872 383.739C324.395 383.739 324.949 383.801 325.534 383.926C326.125 384.045 326.676 384.267 327.188 384.591C327.705 384.915 328.128 385.378 328.457 385.98C328.787 386.577 328.952 387.352 328.952 388.307V397H326.463V395.21H326.361C326.196 395.54 325.949 395.864 325.619 396.182C325.29 396.5 324.866 396.764 324.349 396.974C323.832 397.185 323.213 397.29 322.491 397.29ZM323.045 395.244C323.75 395.244 324.352 395.105 324.852 394.827C325.358 394.548 325.741 394.185 326.003 393.736C326.27 393.281 326.403 392.795 326.403 392.278V390.591C326.313 390.682 326.136 390.767 325.875 390.847C325.619 390.92 325.327 390.986 324.997 391.043C324.668 391.094 324.347 391.142 324.034 391.188C323.722 391.227 323.46 391.261 323.25 391.29C322.756 391.352 322.304 391.457 321.895 391.605C321.491 391.753 321.168 391.966 320.923 392.244C320.685 392.517 320.565 392.881 320.565 393.335C320.565 393.966 320.798 394.443 321.264 394.767C321.73 395.085 322.324 395.244 323.045 395.244ZM332.346 397V383.909H334.792V386.04H334.954C335.227 385.318 335.673 384.756 336.292 384.352C336.911 383.943 337.653 383.739 338.516 383.739C339.391 383.739 340.124 383.943 340.715 384.352C341.312 384.761 341.752 385.324 342.036 386.04H342.173C342.485 385.341 342.982 384.784 343.664 384.369C344.346 383.949 345.158 383.739 346.102 383.739C347.289 383.739 348.258 384.111 349.008 384.855C349.763 385.599 350.141 386.722 350.141 388.222V397H347.593V388.46C347.593 387.574 347.352 386.932 346.869 386.534C346.386 386.136 345.809 385.938 345.138 385.938C344.309 385.938 343.664 386.193 343.204 386.705C342.744 387.21 342.513 387.861 342.513 388.656V397H339.974V388.298C339.974 387.588 339.752 387.017 339.309 386.585C338.866 386.153 338.289 385.938 337.579 385.938C337.096 385.938 336.65 386.065 336.241 386.321C335.837 386.571 335.511 386.92 335.261 387.369C335.016 387.818 334.894 388.338 334.894 388.929V397H332.346ZM353.557 397V383.909H356.105V397H353.557ZM354.844 381.889C354.401 381.889 354.02 381.741 353.702 381.446C353.389 381.145 353.233 380.787 353.233 380.372C353.233 379.952 353.389 379.594 353.702 379.298C354.02 378.997 354.401 378.847 354.844 378.847C355.287 378.847 355.665 378.997 355.977 379.298C356.295 379.594 356.455 379.952 356.455 380.372C356.455 380.787 356.295 381.145 355.977 381.446C355.665 381.741 355.287 381.889 354.844 381.889ZM362.082 379.545V397H359.533V379.545H362.082ZM367.121 401.909C366.74 401.909 366.393 401.878 366.081 401.815C365.768 401.759 365.536 401.696 365.382 401.628L365.996 399.54C366.462 399.665 366.876 399.719 367.24 399.702C367.604 399.685 367.925 399.548 368.203 399.293C368.487 399.037 368.737 398.619 368.953 398.04L369.268 397.17L364.479 383.909H367.206L370.521 394.068H370.658L373.973 383.909H376.709L371.314 398.747C371.064 399.429 370.746 400.006 370.359 400.477C369.973 400.955 369.513 401.313 368.979 401.551C368.445 401.79 367.825 401.909 367.121 401.909ZM379.962 397.162C379.496 397.162 379.096 396.997 378.761 396.668C378.425 396.332 378.258 395.929 378.258 395.457C378.258 394.991 378.425 394.594 378.761 394.264C379.096 393.929 379.496 393.761 379.962 393.761C380.428 393.761 380.829 393.929 381.164 394.264C381.499 394.594 381.667 394.991 381.667 395.457C381.667 395.77 381.587 396.057 381.428 396.318C381.275 396.574 381.07 396.778 380.815 396.932C380.559 397.085 380.275 397.162 379.962 397.162ZM391.355 397V379.545H397.747C398.986 379.545 400.011 379.75 400.824 380.159C401.636 380.562 402.244 381.111 402.648 381.804C403.051 382.491 403.253 383.267 403.253 384.131C403.253 384.858 403.119 385.472 402.852 385.972C402.585 386.466 402.227 386.864 401.778 387.165C401.335 387.46 400.847 387.676 400.312 387.812V387.983C400.892 388.011 401.457 388.199 402.009 388.545C402.565 388.886 403.026 389.372 403.389 390.003C403.753 390.634 403.935 391.401 403.935 392.304C403.935 393.196 403.724 393.997 403.304 394.707C402.889 395.412 402.247 395.972 401.378 396.386C400.509 396.795 399.398 397 398.045 397H391.355ZM393.989 394.741H397.79C399.051 394.741 399.955 394.497 400.5 394.009C401.045 393.52 401.318 392.909 401.318 392.176C401.318 391.625 401.179 391.119 400.901 390.659C400.622 390.199 400.224 389.832 399.707 389.56C399.196 389.287 398.588 389.151 397.884 389.151H393.989V394.741ZM393.989 387.097H397.517C398.108 387.097 398.639 386.983 399.111 386.756C399.588 386.528 399.966 386.21 400.244 385.801C400.528 385.386 400.67 384.898 400.67 384.335C400.67 383.614 400.418 383.009 399.912 382.52C399.406 382.031 398.631 381.787 397.585 381.787H393.989V387.097ZM412.368 397.264C411.141 397.264 410.07 396.983 409.155 396.42C408.24 395.858 407.53 395.071 407.024 394.06C406.518 393.048 406.266 391.866 406.266 390.514C406.266 389.156 406.518 387.969 407.024 386.952C407.53 385.935 408.24 385.145 409.155 384.582C410.07 384.02 411.141 383.739 412.368 383.739C413.595 383.739 414.666 384.02 415.581 384.582C416.496 385.145 417.206 385.935 417.712 386.952C418.217 387.969 418.47 389.156 418.47 390.514C418.47 391.866 418.217 393.048 417.712 394.06C417.206 395.071 416.496 395.858 415.581 396.42C414.666 396.983 413.595 397.264 412.368 397.264ZM412.376 395.125C413.172 395.125 413.831 394.915 414.354 394.494C414.876 394.074 415.263 393.514 415.513 392.815C415.768 392.116 415.896 391.347 415.896 390.506C415.896 389.67 415.768 388.903 415.513 388.205C415.263 387.5 414.876 386.935 414.354 386.509C413.831 386.082 413.172 385.869 412.376 385.869C411.575 385.869 410.911 386.082 410.382 386.509C409.859 386.935 409.47 387.5 409.214 388.205C408.964 388.903 408.839 389.67 408.839 390.506C408.839 391.347 408.964 392.116 409.214 392.815C409.47 393.514 409.859 394.074 410.382 394.494C410.911 394.915 411.575 395.125 412.376 395.125ZM426.829 397.264C425.602 397.264 424.531 396.983 423.616 396.42C422.701 395.858 421.991 395.071 421.485 394.06C420.979 393.048 420.727 391.866 420.727 390.514C420.727 389.156 420.979 387.969 421.485 386.952C421.991 385.935 422.701 385.145 423.616 384.582C424.531 384.02 425.602 383.739 426.829 383.739C428.056 383.739 429.127 384.02 430.042 384.582C430.957 385.145 431.667 385.935 432.173 386.952C432.678 387.969 432.931 389.156 432.931 390.514C432.931 391.866 432.678 393.048 432.173 394.06C431.667 395.071 430.957 395.858 430.042 396.42C429.127 396.983 428.056 397.264 426.829 397.264ZM426.837 395.125C427.633 395.125 428.292 394.915 428.815 394.494C429.337 394.074 429.724 393.514 429.974 392.815C430.229 392.116 430.357 391.347 430.357 390.506C430.357 389.67 430.229 388.903 429.974 388.205C429.724 387.5 429.337 386.935 428.815 386.509C428.292 386.082 427.633 385.869 426.837 385.869C426.036 385.869 425.371 386.082 424.843 386.509C424.32 386.935 423.931 387.5 423.675 388.205C423.425 388.903 423.3 389.67 423.3 390.506C423.3 391.347 423.425 392.116 423.675 392.815C423.931 393.514 424.32 394.074 424.843 394.494C425.371 394.915 426.036 395.125 426.837 395.125ZM438.119 392.56L438.102 389.449H438.545L443.761 383.909H446.812L440.864 390.216H440.463L438.119 392.56ZM435.776 397V379.545H438.324V397H435.776ZM444.043 397L439.355 390.778L441.111 388.997L447.17 397H444.043ZM458.035 389.227V397H455.487V383.909H457.933V386.04H458.094C458.396 385.347 458.867 384.79 459.509 384.369C460.157 383.949 460.972 383.739 461.955 383.739C462.847 383.739 463.629 383.926 464.299 384.301C464.969 384.67 465.489 385.222 465.859 385.955C466.228 386.687 466.413 387.594 466.413 388.673V397H463.864V388.98C463.864 388.031 463.617 387.29 463.123 386.756C462.629 386.216 461.95 385.946 461.086 385.946C460.495 385.946 459.969 386.074 459.509 386.33C459.055 386.585 458.694 386.96 458.427 387.455C458.165 387.943 458.035 388.534 458.035 389.227ZM475.344 397.264C474.117 397.264 473.046 396.983 472.131 396.42C471.217 395.858 470.506 395.071 470.001 394.06C469.495 393.048 469.242 391.866 469.242 390.514C469.242 389.156 469.495 387.969 470.001 386.952C470.506 385.935 471.217 385.145 472.131 384.582C473.046 384.02 474.117 383.739 475.344 383.739C476.572 383.739 477.643 384.02 478.558 384.582C479.472 385.145 480.183 385.935 480.688 386.952C481.194 387.969 481.447 389.156 481.447 390.514C481.447 391.866 481.194 393.048 480.688 394.06C480.183 395.071 479.472 395.858 478.558 396.42C477.643 396.983 476.572 397.264 475.344 397.264ZM475.353 395.125C476.148 395.125 476.808 394.915 477.33 394.494C477.853 394.074 478.239 393.514 478.489 392.815C478.745 392.116 478.873 391.347 478.873 390.506C478.873 389.67 478.745 388.903 478.489 388.205C478.239 387.5 477.853 386.935 477.33 386.509C476.808 386.082 476.148 385.869 475.353 385.869C474.552 385.869 473.887 386.082 473.359 386.509C472.836 386.935 472.447 387.5 472.191 388.205C471.941 388.903 471.816 389.67 471.816 390.506C471.816 391.347 471.941 392.116 472.191 392.815C472.447 393.514 472.836 394.074 473.359 394.494C473.887 394.915 474.552 395.125 475.353 395.125ZM486.731 397L482.879 383.909H485.512L488.077 393.523H488.205L490.779 383.909H493.413L495.969 393.48H496.097L498.646 383.909H501.279L497.435 397H494.836L492.177 387.548H491.981L489.322 397H486.731ZM516.279 383.909V385.955H508.881V383.909H516.279ZM510.91 397V382.392C510.91 381.574 511.089 380.895 511.447 380.355C511.805 379.81 512.279 379.403 512.87 379.136C513.461 378.864 514.103 378.727 514.796 378.727C515.308 378.727 515.745 378.77 516.109 378.855C516.472 378.935 516.742 379.009 516.918 379.077L516.322 381.139C516.202 381.105 516.049 381.065 515.862 381.02C515.674 380.969 515.447 380.943 515.18 380.943C514.56 380.943 514.117 381.097 513.85 381.403C513.589 381.71 513.458 382.153 513.458 382.733V397H510.91ZM523.907 397.264C522.68 397.264 521.609 396.983 520.694 396.42C519.779 395.858 519.069 395.071 518.563 394.06C518.058 393.048 517.805 391.866 517.805 390.514C517.805 389.156 518.058 387.969 518.563 386.952C519.069 385.935 519.779 385.145 520.694 384.582C521.609 384.02 522.68 383.739 523.907 383.739C525.134 383.739 526.205 384.02 527.12 384.582C528.035 385.145 528.745 385.935 529.251 386.952C529.756 387.969 530.009 389.156 530.009 390.514C530.009 391.866 529.756 393.048 529.251 394.06C528.745 395.071 528.035 395.858 527.12 396.42C526.205 396.983 525.134 397.264 523.907 397.264ZM523.915 395.125C524.711 395.125 525.37 394.915 525.893 394.494C526.415 394.074 526.802 393.514 527.052 392.815C527.308 392.116 527.435 391.347 527.435 390.506C527.435 389.67 527.308 388.903 527.052 388.205C526.802 387.5 526.415 386.935 525.893 386.509C525.37 386.082 524.711 385.869 523.915 385.869C523.114 385.869 522.45 386.082 521.921 386.509C521.398 386.935 521.009 387.5 520.754 388.205C520.504 388.903 520.379 389.67 520.379 390.506C520.379 391.347 520.504 392.116 520.754 392.815C521.009 393.514 521.398 394.074 521.921 394.494C522.45 394.915 523.114 395.125 523.915 395.125ZM532.854 397V383.909H535.317V385.989H535.453C535.692 385.284 536.112 384.73 536.714 384.327C537.322 383.918 538.01 383.713 538.777 383.713C538.936 383.713 539.124 383.719 539.339 383.73C539.561 383.741 539.734 383.756 539.859 383.773V386.21C539.757 386.182 539.575 386.151 539.314 386.116C539.053 386.077 538.791 386.057 538.53 386.057C537.928 386.057 537.391 386.185 536.919 386.44C536.453 386.69 536.084 387.04 535.811 387.489C535.538 387.932 535.402 388.437 535.402 389.006V397H532.854ZM31.8239 412.909V414.955H24.6733V412.909H31.8239ZM26.5909 409.773H29.1392V422.156C29.1392 422.651 29.2131 423.023 29.3608 423.273C29.5085 423.517 29.6989 423.685 29.9318 423.776C30.1705 423.861 30.429 423.903 30.7074 423.903C30.9119 423.903 31.0909 423.889 31.2443 423.861C31.3977 423.832 31.517 423.81 31.6023 423.793L32.0625 425.898C31.9148 425.955 31.7045 426.011 31.4318 426.068C31.1591 426.131 30.8182 426.165 30.4091 426.17C29.7386 426.182 29.1136 426.062 28.5341 425.812C27.9545 425.562 27.4858 425.176 27.1278 424.653C26.7699 424.131 26.5909 423.474 26.5909 422.685V409.773ZM40.0163 426.264C38.7891 426.264 37.718 425.983 36.8033 425.42C35.8885 424.858 35.1783 424.071 34.6726 423.06C34.1669 422.048 33.9141 420.866 33.9141 419.514C33.9141 418.156 34.1669 416.969 34.6726 415.952C35.1783 414.935 35.8885 414.145 36.8033 413.582C37.718 413.02 38.7891 412.739 40.0163 412.739C41.2436 412.739 42.3146 413.02 43.2294 413.582C44.1442 414.145 44.8544 414.935 45.3601 415.952C45.8658 416.969 46.1186 418.156 46.1186 419.514C46.1186 420.866 45.8658 422.048 45.3601 423.06C44.8544 424.071 44.1442 424.858 43.2294 425.42C42.3146 425.983 41.2436 426.264 40.0163 426.264ZM40.0249 424.125C40.8203 424.125 41.4794 423.915 42.0021 423.494C42.5249 423.074 42.9112 422.514 43.1612 421.815C43.4169 421.116 43.5447 420.347 43.5447 419.506C43.5447 418.67 43.4169 417.903 43.1612 417.205C42.9112 416.5 42.5249 415.935 42.0021 415.509C41.4794 415.082 40.8203 414.869 40.0249 414.869C39.2237 414.869 38.5589 415.082 38.0305 415.509C37.5078 415.935 37.1186 416.5 36.8629 417.205C36.6129 417.903 36.4879 418.67 36.4879 419.506C36.4879 420.347 36.6129 421.116 36.8629 421.815C37.1186 422.514 37.5078 423.074 38.0305 423.494C38.5589 423.915 39.2237 424.125 40.0249 424.125ZM48.9631 430.909V412.909H51.4517V415.031H51.6648C51.8125 414.759 52.0256 414.443 52.304 414.085C52.5824 413.727 52.9688 413.415 53.4631 413.148C53.9574 412.875 54.6108 412.739 55.4233 412.739C56.4801 412.739 57.4233 413.006 58.2528 413.54C59.0824 414.074 59.733 414.844 60.2045 415.849C60.6818 416.855 60.9205 418.065 60.9205 419.48C60.9205 420.895 60.6847 422.108 60.2131 423.119C59.7415 424.125 59.0938 424.901 58.2699 425.446C57.446 425.986 56.5057 426.256 55.4489 426.256C54.6534 426.256 54.0028 426.122 53.4972 425.855C52.9972 425.588 52.6051 425.276 52.321 424.918C52.0369 424.56 51.8182 424.241 51.6648 423.963H51.5114V430.909H48.9631ZM51.4602 419.455C51.4602 420.375 51.5938 421.182 51.8608 421.875C52.1278 422.568 52.5142 423.111 53.0199 423.503C53.5256 423.889 54.1449 424.082 54.8778 424.082C55.6392 424.082 56.2756 423.881 56.7869 423.477C57.2983 423.068 57.6847 422.514 57.946 421.815C58.2131 421.116 58.3466 420.33 58.3466 419.455C58.3466 418.591 58.2159 417.815 57.9545 417.128C57.6989 416.44 57.3125 415.898 56.7955 415.5C56.2841 415.102 55.6449 414.903 54.8778 414.903C54.1392 414.903 53.5142 415.094 53.0028 415.474C52.4972 415.855 52.1136 416.386 51.8523 417.068C51.5909 417.75 51.4602 418.545 51.4602 419.455ZM71.4886 417.52V419.727H63.75V417.52H71.4886ZM77.4332 418.227V426H74.8849V412.909H77.331V415.04H77.4929C77.794 414.347 78.2656 413.79 78.9077 413.369C79.5554 412.949 80.3707 412.739 81.3537 412.739C82.2457 412.739 83.027 412.926 83.6974 413.301C84.3679 413.67 84.8878 414.222 85.2571 414.955C85.6264 415.687 85.8111 416.594 85.8111 417.673V426H83.2628V417.98C83.2628 417.031 83.0156 416.29 82.5213 415.756C82.027 415.216 81.348 414.946 80.4844 414.946C79.8935 414.946 79.3679 415.074 78.9077 415.33C78.4531 415.585 78.0923 415.96 77.8253 416.455C77.5639 416.943 77.4332 417.534 77.4332 418.227ZM94.7429 426.264C93.5156 426.264 92.4446 425.983 91.5298 425.42C90.6151 424.858 89.9048 424.071 89.3991 423.06C88.8935 422.048 88.6406 420.866 88.6406 419.514C88.6406 418.156 88.8935 416.969 89.3991 415.952C89.9048 414.935 90.6151 414.145 91.5298 413.582C92.4446 413.02 93.5156 412.739 94.7429 412.739C95.9702 412.739 97.0412 413.02 97.956 413.582C98.8707 414.145 99.581 414.935 100.087 415.952C100.592 416.969 100.845 418.156 100.845 419.514C100.845 420.866 100.592 422.048 100.087 423.06C99.581 424.071 98.8707 424.858 97.956 425.42C97.0412 425.983 95.9702 426.264 94.7429 426.264ZM94.7514 424.125C95.5469 424.125 96.206 423.915 96.7287 423.494C97.2514 423.074 97.6378 422.514 97.8878 421.815C98.1435 421.116 98.2713 420.347 98.2713 419.506C98.2713 418.67 98.1435 417.903 97.8878 417.205C97.6378 416.5 97.2514 415.935 96.7287 415.509C96.206 415.082 95.5469 414.869 94.7514 414.869C93.9503 414.869 93.2855 415.082 92.7571 415.509C92.2344 415.935 91.8452 416.5 91.5895 417.205C91.3395 417.903 91.2145 418.67 91.2145 419.506C91.2145 420.347 91.3395 421.116 91.5895 421.815C91.8452 422.514 92.2344 423.074 92.7571 423.494C93.2855 423.915 93.9503 424.125 94.7514 424.125ZM109.8 412.909V414.955H102.65V412.909H109.8ZM104.567 409.773H107.116V422.156C107.116 422.651 107.19 423.023 107.337 423.273C107.485 423.517 107.675 423.685 107.908 423.776C108.147 423.861 108.406 423.903 108.684 423.903C108.888 423.903 109.067 423.889 109.221 423.861C109.374 423.832 109.494 423.81 109.579 423.793L110.039 425.898C109.891 425.955 109.681 426.011 109.408 426.068C109.136 426.131 108.795 426.165 108.386 426.17C107.715 426.182 107.09 426.062 106.511 425.812C105.931 425.562 105.462 425.176 105.104 424.653C104.746 424.131 104.567 423.474 104.567 422.685V409.773ZM117.993 426.264C116.726 426.264 115.635 425.977 114.72 425.403C113.811 424.824 113.112 424.026 112.624 423.009C112.135 421.991 111.891 420.827 111.891 419.514C111.891 418.185 112.141 417.011 112.641 415.994C113.141 414.972 113.845 414.173 114.754 413.599C115.663 413.026 116.734 412.739 117.967 412.739C118.962 412.739 119.848 412.923 120.626 413.293C121.405 413.656 122.033 414.168 122.51 414.827C122.993 415.486 123.28 416.256 123.371 417.136H120.891C120.754 416.523 120.442 415.994 119.953 415.551C119.47 415.108 118.822 414.886 118.01 414.886C117.3 414.886 116.678 415.074 116.143 415.449C115.615 415.818 115.203 416.347 114.908 417.034C114.612 417.716 114.464 418.523 114.464 419.455C114.464 420.409 114.609 421.233 114.899 421.926C115.189 422.619 115.598 423.156 116.126 423.537C116.661 423.918 117.288 424.108 118.01 424.108C118.493 424.108 118.93 424.02 119.322 423.844C119.72 423.662 120.053 423.403 120.32 423.068C120.592 422.733 120.783 422.33 120.891 421.858H123.371C123.28 422.705 123.004 423.46 122.544 424.125C122.084 424.79 121.467 425.312 120.695 425.693C119.928 426.074 119.027 426.264 117.993 426.264ZM128.644 418.227V426H126.096V408.545H128.61V415.04H128.772C129.079 414.335 129.548 413.776 130.178 413.361C130.809 412.946 131.633 412.739 132.65 412.739C133.548 412.739 134.332 412.923 135.002 413.293C135.678 413.662 136.201 414.213 136.57 414.946C136.945 415.673 137.133 416.582 137.133 417.673V426H134.585V417.98C134.585 417.02 134.337 416.276 133.843 415.747C133.349 415.213 132.661 414.946 131.781 414.946C131.178 414.946 130.638 415.074 130.161 415.33C129.69 415.585 129.317 415.96 129.045 416.455C128.778 416.943 128.644 417.534 128.644 418.227ZM152.374 431.182C151.334 431.182 150.439 431.045 149.689 430.773C148.945 430.5 148.337 430.139 147.865 429.69C147.393 429.241 147.041 428.75 146.808 428.216L148.999 427.312C149.152 427.562 149.357 427.827 149.612 428.105C149.874 428.389 150.226 428.631 150.669 428.83C151.118 429.028 151.695 429.128 152.399 429.128C153.365 429.128 154.163 428.892 154.794 428.42C155.425 427.955 155.74 427.21 155.74 426.188V423.614H155.578C155.425 423.892 155.203 424.202 154.913 424.543C154.629 424.884 154.237 425.179 153.737 425.429C153.237 425.679 152.587 425.804 151.786 425.804C150.751 425.804 149.82 425.562 148.99 425.08C148.166 424.591 147.513 423.872 147.03 422.923C146.553 421.969 146.314 420.795 146.314 419.403C146.314 418.011 146.55 416.818 147.021 415.824C147.499 414.83 148.152 414.068 148.982 413.54C149.811 413.006 150.751 412.739 151.803 412.739C152.615 412.739 153.271 412.875 153.771 413.148C154.271 413.415 154.661 413.727 154.939 414.085C155.223 414.443 155.442 414.759 155.595 415.031H155.783V412.909H158.28V426.29C158.28 427.415 158.018 428.338 157.496 429.06C156.973 429.781 156.266 430.315 155.374 430.662C154.487 431.009 153.487 431.182 152.374 431.182ZM152.348 423.69C153.081 423.69 153.7 423.52 154.206 423.179C154.717 422.832 155.104 422.338 155.365 421.696C155.632 421.048 155.766 420.273 155.766 419.369C155.766 418.489 155.635 417.713 155.374 417.043C155.112 416.372 154.729 415.849 154.223 415.474C153.717 415.094 153.092 414.903 152.348 414.903C151.581 414.903 150.942 415.102 150.43 415.5C149.919 415.892 149.533 416.426 149.271 417.102C149.016 417.778 148.888 418.534 148.888 419.369C148.888 420.227 149.018 420.98 149.28 421.628C149.541 422.276 149.928 422.781 150.439 423.145C150.956 423.509 151.592 423.69 152.348 423.69ZM161.697 426V412.909H164.161V414.989H164.297C164.536 414.284 164.956 413.73 165.558 413.327C166.166 412.918 166.854 412.713 167.621 412.713C167.78 412.713 167.967 412.719 168.183 412.73C168.405 412.741 168.578 412.756 168.703 412.773V415.21C168.601 415.182 168.419 415.151 168.158 415.116C167.896 415.077 167.635 415.057 167.374 415.057C166.771 415.057 166.234 415.185 165.763 415.44C165.297 415.69 164.928 416.04 164.655 416.489C164.382 416.932 164.246 417.437 164.246 418.006V426H161.697ZM175.954 426.264C174.727 426.264 173.656 425.983 172.741 425.42C171.826 424.858 171.116 424.071 170.61 423.06C170.104 422.048 169.852 420.866 169.852 419.514C169.852 418.156 170.104 416.969 170.61 415.952C171.116 414.935 171.826 414.145 172.741 413.582C173.656 413.02 174.727 412.739 175.954 412.739C177.181 412.739 178.252 413.02 179.167 413.582C180.082 414.145 180.792 414.935 181.298 415.952C181.803 416.969 182.056 418.156 182.056 419.514C182.056 420.866 181.803 422.048 181.298 423.06C180.792 424.071 180.082 424.858 179.167 425.42C178.252 425.983 177.181 426.264 175.954 426.264ZM175.962 424.125C176.758 424.125 177.417 423.915 177.94 423.494C178.462 423.074 178.849 422.514 179.099 421.815C179.354 421.116 179.482 420.347 179.482 419.506C179.482 418.67 179.354 417.903 179.099 417.205C178.849 416.5 178.462 415.935 177.94 415.509C177.417 415.082 176.758 414.869 175.962 414.869C175.161 414.869 174.496 415.082 173.968 415.509C173.445 415.935 173.056 416.5 172.8 417.205C172.55 417.903 172.425 418.67 172.425 419.506C172.425 420.347 172.55 421.116 172.8 421.815C173.056 422.514 173.445 423.074 173.968 423.494C174.496 423.915 175.161 424.125 175.962 424.125ZM190.415 426.264C189.188 426.264 188.116 425.983 187.202 425.42C186.287 424.858 185.577 424.071 185.071 423.06C184.565 422.048 184.312 420.866 184.312 419.514C184.312 418.156 184.565 416.969 185.071 415.952C185.577 414.935 186.287 414.145 187.202 413.582C188.116 413.02 189.188 412.739 190.415 412.739C191.642 412.739 192.713 413.02 193.628 413.582C194.543 414.145 195.253 414.935 195.759 415.952C196.264 416.969 196.517 418.156 196.517 419.514C196.517 420.866 196.264 422.048 195.759 423.06C195.253 424.071 194.543 424.858 193.628 425.42C192.713 425.983 191.642 426.264 190.415 426.264ZM190.423 424.125C191.219 424.125 191.878 423.915 192.401 423.494C192.923 423.074 193.31 422.514 193.56 421.815C193.815 421.116 193.943 420.347 193.943 419.506C193.943 418.67 193.815 417.903 193.56 417.205C193.31 416.5 192.923 415.935 192.401 415.509C191.878 415.082 191.219 414.869 190.423 414.869C189.622 414.869 188.957 415.082 188.429 415.509C187.906 415.935 187.517 416.5 187.261 417.205C187.011 417.903 186.886 418.67 186.886 419.506C186.886 420.347 187.011 421.116 187.261 421.815C187.517 422.514 187.906 423.074 188.429 423.494C188.957 423.915 189.622 424.125 190.423 424.125ZM199.362 426V412.909H201.808V415.04H201.969C202.242 414.318 202.688 413.756 203.308 413.352C203.927 412.943 204.668 412.739 205.532 412.739C206.407 412.739 207.14 412.943 207.731 413.352C208.327 413.761 208.768 414.324 209.052 415.04H209.188C209.501 414.341 209.998 413.784 210.68 413.369C211.362 412.949 212.174 412.739 213.117 412.739C214.305 412.739 215.273 413.111 216.023 413.855C216.779 414.599 217.157 415.722 217.157 417.222V426H214.609V417.46C214.609 416.574 214.367 415.932 213.884 415.534C213.401 415.136 212.825 414.938 212.154 414.938C211.325 414.938 210.68 415.193 210.219 415.705C209.759 416.21 209.529 416.861 209.529 417.656V426H206.989V417.298C206.989 416.588 206.768 416.017 206.325 415.585C205.881 415.153 205.305 414.938 204.594 414.938C204.112 414.938 203.665 415.065 203.256 415.321C202.853 415.571 202.526 415.92 202.276 416.369C202.032 416.818 201.91 417.338 201.91 417.929V426H199.362ZM220.572 426V412.909H223.121V426H220.572ZM221.859 410.889C221.416 410.889 221.036 410.741 220.717 410.446C220.405 410.145 220.249 409.787 220.249 409.372C220.249 408.952 220.405 408.594 220.717 408.298C221.036 407.997 221.416 407.847 221.859 407.847C222.303 407.847 222.68 407.997 222.993 408.298C223.311 408.594 223.47 408.952 223.47 409.372C223.47 409.787 223.311 410.145 222.993 410.446C222.68 410.741 222.303 410.889 221.859 410.889ZM229.097 418.227V426H226.549V412.909H228.995V415.04H229.157C229.458 414.347 229.93 413.79 230.572 413.369C231.219 412.949 232.035 412.739 233.018 412.739C233.91 412.739 234.691 412.926 235.362 413.301C236.032 413.67 236.552 414.222 236.921 414.955C237.29 415.687 237.475 416.594 237.475 417.673V426H234.927V417.98C234.927 417.031 234.68 416.29 234.185 415.756C233.691 415.216 233.012 414.946 232.148 414.946C231.558 414.946 231.032 415.074 230.572 415.33C230.117 415.585 229.756 415.96 229.489 416.455C229.228 416.943 229.097 417.534 229.097 418.227ZM246.381 431.182C245.342 431.182 244.447 431.045 243.697 430.773C242.952 430.5 242.344 430.139 241.873 429.69C241.401 429.241 241.049 428.75 240.816 428.216L243.006 427.312C243.16 427.562 243.364 427.827 243.62 428.105C243.881 428.389 244.234 428.631 244.677 428.83C245.126 429.028 245.702 429.128 246.407 429.128C247.373 429.128 248.171 428.892 248.802 428.42C249.433 427.955 249.748 427.21 249.748 426.188V423.614H249.586C249.433 423.892 249.211 424.202 248.921 424.543C248.637 424.884 248.245 425.179 247.745 425.429C247.245 425.679 246.594 425.804 245.793 425.804C244.759 425.804 243.827 425.562 242.998 425.08C242.174 424.591 241.521 423.872 241.038 422.923C240.56 421.969 240.322 420.795 240.322 419.403C240.322 418.011 240.558 416.818 241.029 415.824C241.506 414.83 242.16 414.068 242.989 413.54C243.819 413.006 244.759 412.739 245.81 412.739C246.623 412.739 247.279 412.875 247.779 413.148C248.279 413.415 248.668 413.727 248.947 414.085C249.231 414.443 249.45 414.759 249.603 415.031H249.79V412.909H252.288V426.29C252.288 427.415 252.026 428.338 251.504 429.06C250.981 429.781 250.273 430.315 249.381 430.662C248.495 431.009 247.495 431.182 246.381 431.182ZM246.356 423.69C247.089 423.69 247.708 423.52 248.214 423.179C248.725 422.832 249.112 422.338 249.373 421.696C249.64 421.048 249.773 420.273 249.773 419.369C249.773 418.489 249.643 417.713 249.381 417.043C249.12 416.372 248.737 415.849 248.231 415.474C247.725 415.094 247.1 414.903 246.356 414.903C245.589 414.903 244.95 415.102 244.438 415.5C243.927 415.892 243.54 416.426 243.279 417.102C243.023 417.778 242.896 418.534 242.896 419.369C242.896 420.227 243.026 420.98 243.288 421.628C243.549 422.276 243.935 422.781 244.447 423.145C244.964 423.509 245.6 423.69 246.356 423.69ZM259.021 423.614L258.893 424.543C258.808 425.224 258.663 425.935 258.458 426.673C258.259 427.418 258.052 428.108 257.836 428.744C257.626 429.381 257.452 429.886 257.316 430.261H255.509C255.583 429.909 255.685 429.432 255.816 428.83C255.947 428.233 256.075 427.565 256.2 426.827C256.325 426.088 256.418 425.335 256.481 424.568L256.566 423.614H259.021ZM268.894 426V408.545H271.442V415.031H271.596C271.744 414.759 271.957 414.443 272.235 414.085C272.513 413.727 272.9 413.415 273.394 413.148C273.888 412.875 274.542 412.739 275.354 412.739C276.411 412.739 277.354 413.006 278.184 413.54C279.013 414.074 279.664 414.844 280.136 415.849C280.613 416.855 280.852 418.065 280.852 419.48C280.852 420.895 280.616 422.108 280.144 423.119C279.673 424.125 279.025 424.901 278.201 425.446C277.377 425.986 276.437 426.256 275.38 426.256C274.585 426.256 273.934 426.122 273.428 425.855C272.928 425.588 272.536 425.276 272.252 424.918C271.968 424.56 271.749 424.241 271.596 423.963H271.383V426H268.894ZM271.391 419.455C271.391 420.375 271.525 421.182 271.792 421.875C272.059 422.568 272.445 423.111 272.951 423.503C273.457 423.889 274.076 424.082 274.809 424.082C275.57 424.082 276.207 423.881 276.718 423.477C277.229 423.068 277.616 422.514 277.877 421.815C278.144 421.116 278.278 420.33 278.278 419.455C278.278 418.591 278.147 417.815 277.886 417.128C277.63 416.44 277.244 415.898 276.727 415.5C276.215 415.102 275.576 414.903 274.809 414.903C274.07 414.903 273.445 415.094 272.934 415.474C272.428 415.855 272.045 416.386 271.783 417.068C271.522 417.75 271.391 418.545 271.391 419.455ZM289.227 426.264C288 426.264 286.929 425.983 286.014 425.42C285.099 424.858 284.389 424.071 283.884 423.06C283.378 422.048 283.125 420.866 283.125 419.514C283.125 418.156 283.378 416.969 283.884 415.952C284.389 414.935 285.099 414.145 286.014 413.582C286.929 413.02 288 412.739 289.227 412.739C290.455 412.739 291.526 413.02 292.44 413.582C293.355 414.145 294.065 414.935 294.571 415.952C295.077 416.969 295.33 418.156 295.33 419.514C295.33 420.866 295.077 422.048 294.571 423.06C294.065 424.071 293.355 424.858 292.44 425.42C291.526 425.983 290.455 426.264 289.227 426.264ZM289.236 424.125C290.031 424.125 290.69 423.915 291.213 423.494C291.736 423.074 292.122 422.514 292.372 421.815C292.628 421.116 292.756 420.347 292.756 419.506C292.756 418.67 292.628 417.903 292.372 417.205C292.122 416.5 291.736 415.935 291.213 415.509C290.69 415.082 290.031 414.869 289.236 414.869C288.435 414.869 287.77 415.082 287.241 415.509C286.719 415.935 286.33 416.5 286.074 417.205C285.824 417.903 285.699 418.67 285.699 419.506C285.699 420.347 285.824 421.116 286.074 421.815C286.33 422.514 286.719 423.074 287.241 423.494C287.77 423.915 288.435 424.125 289.236 424.125ZM301.984 426.29C301.154 426.29 300.404 426.136 299.734 425.83C299.063 425.517 298.532 425.065 298.14 424.474C297.754 423.884 297.56 423.159 297.56 422.301C297.56 421.562 297.702 420.955 297.987 420.477C298.271 420 298.654 419.622 299.137 419.344C299.62 419.065 300.16 418.855 300.756 418.713C301.353 418.571 301.961 418.463 302.58 418.389C303.364 418.298 304.001 418.224 304.489 418.168C304.978 418.105 305.333 418.006 305.555 417.869C305.776 417.733 305.887 417.511 305.887 417.205V417.145C305.887 416.401 305.677 415.824 305.256 415.415C304.842 415.006 304.222 414.801 303.398 414.801C302.54 414.801 301.864 414.991 301.37 415.372C300.881 415.747 300.543 416.165 300.356 416.625L297.961 416.08C298.245 415.284 298.66 414.642 299.205 414.153C299.756 413.659 300.39 413.301 301.106 413.08C301.822 412.852 302.575 412.739 303.364 412.739C303.887 412.739 304.441 412.801 305.026 412.926C305.617 413.045 306.168 413.267 306.68 413.591C307.197 413.915 307.62 414.378 307.95 414.98C308.279 415.577 308.444 416.352 308.444 417.307V426H305.955V424.21H305.853C305.688 424.54 305.441 424.864 305.112 425.182C304.782 425.5 304.359 425.764 303.842 425.974C303.325 426.185 302.705 426.29 301.984 426.29ZM302.538 424.244C303.242 424.244 303.844 424.105 304.344 423.827C304.85 423.548 305.234 423.185 305.495 422.736C305.762 422.281 305.896 421.795 305.896 421.278V419.591C305.805 419.682 305.629 419.767 305.367 419.847C305.112 419.92 304.819 419.986 304.489 420.043C304.16 420.094 303.839 420.142 303.526 420.188C303.214 420.227 302.952 420.261 302.742 420.29C302.248 420.352 301.796 420.457 301.387 420.605C300.984 420.753 300.66 420.966 300.415 421.244C300.177 421.517 300.058 421.881 300.058 422.335C300.058 422.966 300.29 423.443 300.756 423.767C301.222 424.085 301.816 424.244 302.538 424.244ZM311.838 426V412.909H314.301V414.989H314.438C314.676 414.284 315.097 413.73 315.699 413.327C316.307 412.918 316.994 412.713 317.761 412.713C317.92 412.713 318.108 412.719 318.324 412.73C318.545 412.741 318.719 412.756 318.844 412.773V415.21C318.741 415.182 318.56 415.151 318.298 415.116C318.037 415.077 317.776 415.057 317.514 415.057C316.912 415.057 316.375 415.185 315.903 415.44C315.438 415.69 315.068 416.04 314.795 416.489C314.523 416.932 314.386 417.437 314.386 418.006V426H311.838ZM325.481 426.256C324.424 426.256 323.481 425.986 322.651 425.446C321.827 424.901 321.18 424.125 320.708 423.119C320.242 422.108 320.009 420.895 320.009 419.48C320.009 418.065 320.245 416.855 320.717 415.849C321.194 414.844 321.847 414.074 322.677 413.54C323.506 413.006 324.447 412.739 325.498 412.739C326.31 412.739 326.964 412.875 327.458 413.148C327.958 413.415 328.344 413.727 328.617 414.085C328.896 414.443 329.112 414.759 329.265 415.031H329.418V408.545H331.967V426H329.478V423.963H329.265C329.112 424.241 328.89 424.56 328.6 424.918C328.316 425.276 327.924 425.588 327.424 425.855C326.924 426.122 326.276 426.256 325.481 426.256ZM326.043 424.082C326.776 424.082 327.396 423.889 327.901 423.503C328.413 423.111 328.799 422.568 329.06 421.875C329.327 421.182 329.461 420.375 329.461 419.455C329.461 418.545 329.33 417.75 329.069 417.068C328.808 416.386 328.424 415.855 327.918 415.474C327.413 415.094 326.788 414.903 326.043 414.903C325.276 414.903 324.637 415.102 324.126 415.5C323.614 415.898 323.228 416.44 322.967 417.128C322.711 417.815 322.583 418.591 322.583 419.455C322.583 420.33 322.714 421.116 322.975 421.815C323.237 422.514 323.623 423.068 324.134 423.477C324.651 423.881 325.288 424.082 326.043 424.082ZM335.604 426V412.909H338.152V426H335.604ZM336.891 410.889C336.447 410.889 336.067 410.741 335.749 410.446C335.436 410.145 335.28 409.787 335.28 409.372C335.28 408.952 335.436 408.594 335.749 408.298C336.067 407.997 336.447 407.847 336.891 407.847C337.334 407.847 337.712 407.997 338.024 408.298C338.342 408.594 338.501 408.952 338.501 409.372C338.501 409.787 338.342 410.145 338.024 410.446C337.712 410.741 337.334 410.889 336.891 410.889ZM344.129 418.227V426H341.58V412.909H344.026V415.04H344.188C344.489 414.347 344.961 413.79 345.603 413.369C346.251 412.949 347.066 412.739 348.049 412.739C348.941 412.739 349.722 412.926 350.393 413.301C351.063 413.67 351.583 414.222 351.952 414.955C352.322 415.687 352.506 416.594 352.506 417.673V426H349.958V417.98C349.958 417.031 349.711 416.29 349.217 415.756C348.722 415.216 348.043 414.946 347.18 414.946C346.589 414.946 346.063 415.074 345.603 415.33C345.148 415.585 344.788 415.96 344.521 416.455C344.259 416.943 344.129 417.534 344.129 418.227ZM361.413 431.182C360.373 431.182 359.478 431.045 358.728 430.773C357.984 430.5 357.376 430.139 356.904 429.69C356.433 429.241 356.08 428.75 355.847 428.216L358.038 427.312C358.191 427.562 358.396 427.827 358.651 428.105C358.913 428.389 359.265 428.631 359.708 428.83C360.157 429.028 360.734 429.128 361.438 429.128C362.404 429.128 363.202 428.892 363.833 428.42C364.464 427.955 364.779 427.21 364.779 426.188V423.614H364.617C364.464 423.892 364.242 424.202 363.952 424.543C363.668 424.884 363.276 425.179 362.776 425.429C362.276 425.679 361.626 425.804 360.825 425.804C359.79 425.804 358.859 425.562 358.029 425.08C357.205 424.591 356.552 423.872 356.069 422.923C355.592 421.969 355.353 420.795 355.353 419.403C355.353 418.011 355.589 416.818 356.06 415.824C356.538 414.83 357.191 414.068 358.021 413.54C358.85 413.006 359.79 412.739 360.842 412.739C361.654 412.739 362.31 412.875 362.81 413.148C363.31 413.415 363.7 413.727 363.978 414.085C364.262 414.443 364.481 414.759 364.634 415.031H364.822V412.909H367.319V426.29C367.319 427.415 367.058 428.338 366.535 429.06C366.012 429.781 365.305 430.315 364.413 430.662C363.526 431.009 362.526 431.182 361.413 431.182ZM361.387 423.69C362.12 423.69 362.739 423.52 363.245 423.179C363.756 422.832 364.143 422.338 364.404 421.696C364.671 421.048 364.805 420.273 364.805 419.369C364.805 418.489 364.674 417.713 364.413 417.043C364.151 416.372 363.768 415.849 363.262 415.474C362.756 415.094 362.131 414.903 361.387 414.903C360.62 414.903 359.981 415.102 359.469 415.5C358.958 415.892 358.572 416.426 358.31 417.102C358.055 417.778 357.927 418.534 357.927 419.369C357.927 420.227 358.058 420.98 358.319 421.628C358.58 422.276 358.967 422.781 359.478 423.145C359.995 423.509 360.631 423.69 361.387 423.69ZM380.898 426.29C380.068 426.29 379.318 426.136 378.648 425.83C377.977 425.517 377.446 425.065 377.054 424.474C376.668 423.884 376.474 423.159 376.474 422.301C376.474 421.562 376.616 420.955 376.901 420.477C377.185 420 377.568 419.622 378.051 419.344C378.534 419.065 379.074 418.855 379.67 418.713C380.267 418.571 380.875 418.463 381.494 418.389C382.278 418.298 382.915 418.224 383.403 418.168C383.892 418.105 384.247 418.006 384.469 417.869C384.69 417.733 384.801 417.511 384.801 417.205V417.145C384.801 416.401 384.591 415.824 384.17 415.415C383.756 415.006 383.136 414.801 382.312 414.801C381.455 414.801 380.778 414.991 380.284 415.372C379.795 415.747 379.457 416.165 379.27 416.625L376.875 416.08C377.159 415.284 377.574 414.642 378.119 414.153C378.67 413.659 379.304 413.301 380.02 413.08C380.736 412.852 381.489 412.739 382.278 412.739C382.801 412.739 383.355 412.801 383.94 412.926C384.531 413.045 385.082 413.267 385.594 413.591C386.111 413.915 386.534 414.378 386.864 414.98C387.193 415.577 387.358 416.352 387.358 417.307V426H384.869V424.21H384.767C384.602 424.54 384.355 424.864 384.026 425.182C383.696 425.5 383.273 425.764 382.756 425.974C382.239 426.185 381.619 426.29 380.898 426.29ZM381.452 424.244C382.156 424.244 382.759 424.105 383.259 423.827C383.764 423.548 384.148 423.185 384.409 422.736C384.676 422.281 384.81 421.795 384.81 421.278V419.591C384.719 419.682 384.543 419.767 384.281 419.847C384.026 419.92 383.733 419.986 383.403 420.043C383.074 420.094 382.753 420.142 382.44 420.188C382.128 420.227 381.866 420.261 381.656 420.29C381.162 420.352 380.71 420.457 380.301 420.605C379.898 420.753 379.574 420.966 379.33 421.244C379.091 421.517 378.972 421.881 378.972 422.335C378.972 422.966 379.205 423.443 379.67 423.767C380.136 424.085 380.73 424.244 381.452 424.244ZM393.3 418.227V426H390.752V412.909H393.198V415.04H393.36C393.661 414.347 394.133 413.79 394.775 413.369C395.423 412.949 396.238 412.739 397.221 412.739C398.113 412.739 398.894 412.926 399.565 413.301C400.235 413.67 400.755 414.222 401.124 414.955C401.494 415.687 401.678 416.594 401.678 417.673V426H399.13V417.98C399.13 417.031 398.883 416.29 398.388 415.756C397.894 415.216 397.215 414.946 396.352 414.946C395.761 414.946 395.235 415.074 394.775 415.33C394.32 415.585 393.96 415.96 393.692 416.455C393.431 416.943 393.3 417.534 393.3 418.227ZM409.996 426.256C408.94 426.256 407.996 425.986 407.167 425.446C406.343 424.901 405.695 424.125 405.224 423.119C404.758 422.108 404.525 420.895 404.525 419.48C404.525 418.065 404.761 416.855 405.232 415.849C405.71 414.844 406.363 414.074 407.192 413.54C408.022 413.006 408.962 412.739 410.013 412.739C410.826 412.739 411.479 412.875 411.974 413.148C412.474 413.415 412.86 413.727 413.133 414.085C413.411 414.443 413.627 414.759 413.781 415.031H413.934V408.545H416.482V426H413.994V423.963H413.781C413.627 424.241 413.406 424.56 413.116 424.918C412.832 425.276 412.44 425.588 411.94 425.855C411.44 426.122 410.792 426.256 409.996 426.256ZM410.559 424.082C411.292 424.082 411.911 423.889 412.417 423.503C412.928 423.111 413.315 422.568 413.576 421.875C413.843 421.182 413.977 420.375 413.977 419.455C413.977 418.545 413.846 417.75 413.585 417.068C413.323 416.386 412.94 415.855 412.434 415.474C411.928 415.094 411.303 414.903 410.559 414.903C409.792 414.903 409.153 415.102 408.641 415.5C408.13 415.898 407.744 416.44 407.482 417.128C407.227 417.815 407.099 418.591 407.099 419.455C407.099 420.33 407.229 421.116 407.491 421.815C407.752 422.514 408.138 423.068 408.65 423.477C409.167 423.881 409.803 424.082 410.559 424.082ZM426.471 426V412.909H428.917V415.04H429.079C429.352 414.318 429.798 413.756 430.417 413.352C431.036 412.943 431.778 412.739 432.641 412.739C433.516 412.739 434.249 412.943 434.84 413.352C435.437 413.761 435.877 414.324 436.161 415.04H436.298C436.61 414.341 437.107 413.784 437.789 413.369C438.471 412.949 439.283 412.739 440.227 412.739C441.414 412.739 442.383 413.111 443.133 413.855C443.888 414.599 444.266 415.722 444.266 417.222V426H441.718V417.46C441.718 416.574 441.477 415.932 440.994 415.534C440.511 415.136 439.934 414.938 439.263 414.938C438.434 414.938 437.789 415.193 437.329 415.705C436.869 416.21 436.638 416.861 436.638 417.656V426H434.099V417.298C434.099 416.588 433.877 416.017 433.434 415.585C432.991 415.153 432.414 414.938 431.704 414.938C431.221 414.938 430.775 415.065 430.366 415.321C429.962 415.571 429.636 415.92 429.386 416.369C429.141 416.818 429.019 417.338 429.019 417.929V426H426.471ZM453.196 426.264C451.969 426.264 450.898 425.983 449.983 425.42C449.068 424.858 448.358 424.071 447.852 423.06C447.347 422.048 447.094 420.866 447.094 419.514C447.094 418.156 447.347 416.969 447.852 415.952C448.358 414.935 449.068 414.145 449.983 413.582C450.898 413.02 451.969 412.739 453.196 412.739C454.423 412.739 455.494 413.02 456.409 413.582C457.324 414.145 458.034 414.935 458.54 415.952C459.045 416.969 459.298 418.156 459.298 419.514C459.298 420.866 459.045 422.048 458.54 423.06C458.034 424.071 457.324 424.858 456.409 425.42C455.494 425.983 454.423 426.264 453.196 426.264ZM453.205 424.125C454 424.125 454.659 423.915 455.182 423.494C455.705 423.074 456.091 422.514 456.341 421.815C456.597 421.116 456.724 420.347 456.724 419.506C456.724 418.67 456.597 417.903 456.341 417.205C456.091 416.5 455.705 415.935 455.182 415.509C454.659 415.082 454 414.869 453.205 414.869C452.403 414.869 451.739 415.082 451.21 415.509C450.688 415.935 450.298 416.5 450.043 417.205C449.793 417.903 449.668 418.67 449.668 419.506C449.668 420.347 449.793 421.116 450.043 421.815C450.298 422.514 450.688 423.074 451.21 423.494C451.739 423.915 452.403 424.125 453.205 424.125ZM462.143 426V412.909H464.606V414.989H464.742C464.981 414.284 465.401 413.73 466.004 413.327C466.612 412.918 467.299 412.713 468.066 412.713C468.225 412.713 468.413 412.719 468.629 412.73C468.85 412.741 469.023 412.756 469.148 412.773V415.21C469.046 415.182 468.864 415.151 468.603 415.116C468.342 415.077 468.08 415.057 467.819 415.057C467.217 415.057 466.68 415.185 466.208 415.44C465.742 415.69 465.373 416.04 465.1 416.489C464.827 416.932 464.691 417.437 464.691 418.006V426H462.143ZM476.527 426.264C475.237 426.264 474.126 425.989 473.195 425.438C472.268 424.881 471.553 424.099 471.047 423.094C470.547 422.082 470.297 420.898 470.297 419.54C470.297 418.199 470.547 417.017 471.047 415.994C471.553 414.972 472.257 414.173 473.161 413.599C474.07 413.026 475.132 412.739 476.348 412.739C477.087 412.739 477.803 412.861 478.496 413.105C479.189 413.349 479.811 413.733 480.362 414.256C480.913 414.778 481.348 415.457 481.666 416.293C481.984 417.122 482.143 418.131 482.143 419.318V420.222H471.737V418.312H479.646C479.646 417.642 479.51 417.048 479.237 416.531C478.964 416.009 478.581 415.597 478.087 415.295C477.598 414.994 477.024 414.844 476.365 414.844C475.649 414.844 475.024 415.02 474.49 415.372C473.962 415.719 473.553 416.173 473.263 416.736C472.979 417.293 472.837 417.898 472.837 418.551V420.043C472.837 420.918 472.99 421.662 473.297 422.276C473.609 422.889 474.044 423.358 474.601 423.682C475.158 424 475.808 424.159 476.553 424.159C477.036 424.159 477.476 424.091 477.874 423.955C478.271 423.812 478.615 423.602 478.905 423.324C479.195 423.045 479.416 422.702 479.57 422.293L481.982 422.727C481.788 423.437 481.442 424.06 480.942 424.594C480.447 425.122 479.825 425.534 479.075 425.83C478.331 426.119 477.482 426.264 476.527 426.264ZM486.65 426.162C486.184 426.162 485.783 425.997 485.448 425.668C485.113 425.332 484.945 424.929 484.945 424.457C484.945 423.991 485.113 423.594 485.448 423.264C485.783 422.929 486.184 422.761 486.65 422.761C487.116 422.761 487.516 422.929 487.852 423.264C488.187 423.594 488.354 423.991 488.354 424.457C488.354 424.77 488.275 425.057 488.116 425.318C487.962 425.574 487.758 425.778 487.502 425.932C487.246 426.085 486.962 426.162 486.65 426.162ZM492.247 408.545V410.182C492.247 410.665 492.156 411.173 491.974 411.707C491.798 412.236 491.548 412.744 491.224 413.233C490.901 413.722 490.52 414.142 490.082 414.494L488.821 413.591C489.156 413.102 489.446 412.582 489.69 412.031C489.94 411.48 490.065 410.872 490.065 410.207V408.545H492.247ZM496.585 408.545V410.182C496.585 410.665 496.494 411.173 496.312 411.707C496.136 412.236 495.886 412.744 495.562 413.233C495.239 413.722 494.858 414.142 494.42 414.494L493.159 413.591C493.494 413.102 493.784 412.582 494.028 412.031C494.278 411.48 494.403 410.872 494.403 410.207V408.545H496.585Z" fill="#FDBE74"/>
</g>
<defs>
<filter id="filter0_d_9_27" x="0" y="-8" width="602" height="504" filterUnits="userSpaceOnUse" color-interpolation-filters="sRGB">
<feFlood flood-opacity="0" result="BackgroundImageFix"/>
<feColorMatrix in="SourceAlpha" type="matrix" values="0 0 0 0 0 0 0 0 0 0 0 0 0 0 0 0 0 0 127 0" result="hardAlpha"/>
<feMorphology radius="8" operator="erode" in="SourceAlpha" result="effect1_dropShadow_9_27"/>
<feOffset dy="16"/>
<feGaussianBlur stdDeviation="16"/>
<feComposite in2="hardAlpha" operator="out"/>
<feColorMatrix type="matrix" values="0 0 0 0 0.0470588 0 0 0 0 0.0470588 0 0 0 0 0.0509804 0 0 0 0.4 0"/>
<feBlend mode="normal" in2="BackgroundImageFix" result="effect1_dropShadow_9_27"/>
<feBlend mode="normal" in="SourceGraphic" in2="effect1_dropShadow_9_27" result="shape"/>
</filter>
</defs>
</svg>
